<mxfile host="drawio-plugin" modified="2021-09-29T12:50:02.963Z" agent="5.0 (Windows NT 6.2; Win64; x64) AppleWebKit/537.36 (KHTML, like Gecko) Chrome/89.0.4389.114 Safari/537.36" etag="UJBdTHCBZZYjhGwNkIPZ" version="14.7.4" type="embed"><diagram id="pfHNEs3RHiK7WJtbR5sJ" name="Situation 1"><mxGraphModel dx="556" dy="1730" grid="1" gridSize="10" guides="1" tooltips="1" connect="1" arrows="1" fold="1" page="1" pageScale="1" pageWidth="850" pageHeight="1100" background="#283618" math="0" shadow="0"><root><mxCell id="0"/><mxCell id="1" parent="0"/><mxCell id="tiiuQXXSepF0HXVEsifw-22" value="" style="edgeStyle=orthogonalEdgeStyle;curved=0;rounded=1;orthogonalLoop=1;jettySize=auto;html=1;fontColor=#FEFAE0;strokeColor=#DDA15E;fillColor=#BC6C25;" parent="1" source="tiiuQXXSepF0HXVEsifw-20" target="tiiuQXXSepF0HXVEsifw-21" edge="1"><mxGeometry relative="1" as="geometry"/></mxCell><mxCell id="tiiuQXXSepF0HXVEsifw-20" value="Start" style="shape=manualInput;whiteSpace=wrap;html=1;rounded=0;fontColor=#FEFAE0;strokeColor=#DDA15E;fillColor=#BC6C25;" parent="1" vertex="1"><mxGeometry x="800" y="-10" width="80" height="80" as="geometry"/></mxCell><mxCell id="tiiuQXXSepF0HXVEsifw-24" value="" style="edgeStyle=orthogonalEdgeStyle;curved=0;rounded=1;orthogonalLoop=1;jettySize=auto;html=1;fontColor=#FEFAE0;strokeColor=#DDA15E;fillColor=#BC6C25;" parent="1" source="tiiuQXXSepF0HXVEsifw-21" target="tiiuQXXSepF0HXVEsifw-23" edge="1"><mxGeometry relative="1" as="geometry"/></mxCell><mxCell id="tiiuQXXSepF0HXVEsifw-26" value="" style="edgeStyle=orthogonalEdgeStyle;curved=0;rounded=1;orthogonalLoop=1;jettySize=auto;html=1;fontColor=#FEFAE0;strokeColor=#DDA15E;fillColor=#BC6C25;" parent="1" source="tiiuQXXSepF0HXVEsifw-21" target="tiiuQXXSepF0HXVEsifw-25" edge="1"><mxGeometry relative="1" as="geometry"/></mxCell><mxCell id="tiiuQXXSepF0HXVEsifw-21" value="Left or Right" style="rhombus;whiteSpace=wrap;html=1;rounded=0;fontColor=#FEFAE0;strokeColor=#DDA15E;fillColor=#BC6C25;" parent="1" vertex="1"><mxGeometry x="800" y="170" width="80" height="80" as="geometry"/></mxCell><mxCell id="tiiuQXXSepF0HXVEsifw-28" value="" style="edgeStyle=orthogonalEdgeStyle;curved=0;rounded=1;orthogonalLoop=1;jettySize=auto;html=1;fontColor=#FEFAE0;strokeColor=#DDA15E;fillColor=#BC6C25;" parent="1" source="tiiuQXXSepF0HXVEsifw-23" target="tiiuQXXSepF0HXVEsifw-27" edge="1"><mxGeometry relative="1" as="geometry"/></mxCell><mxCell id="tiiuQXXSepF0HXVEsifw-23" value="They face a guard" style="whiteSpace=wrap;html=1;rounded=0;fontColor=#FEFAE0;strokeColor=#DDA15E;fillColor=#BC6C25;" parent="1" vertex="1"><mxGeometry x="975" y="170" width="120" height="60" as="geometry"/></mxCell><mxCell id="tiiuQXXSepF0HXVEsifw-37" value="" style="edgeStyle=orthogonalEdgeStyle;curved=0;rounded=1;orthogonalLoop=1;jettySize=auto;html=1;fontColor=#FEFAE0;strokeColor=#DDA15E;fillColor=#BC6C25;" parent="1" source="tiiuQXXSepF0HXVEsifw-25" target="tiiuQXXSepF0HXVEsifw-36" edge="1"><mxGeometry relative="1" as="geometry"/></mxCell><mxCell id="tiiuQXXSepF0HXVEsifw-25" value="They find 2 more hallways" style="whiteSpace=wrap;html=1;rounded=0;fontColor=#FEFAE0;strokeColor=#DDA15E;fillColor=#BC6C25;" parent="1" vertex="1"><mxGeometry x="595" y="170" width="120" height="60" as="geometry"/></mxCell><mxCell id="tiiuQXXSepF0HXVEsifw-30" value="" style="edgeStyle=orthogonalEdgeStyle;curved=0;rounded=1;orthogonalLoop=1;jettySize=auto;html=1;fontColor=#FEFAE0;strokeColor=#DDA15E;fillColor=#BC6C25;" parent="1" source="tiiuQXXSepF0HXVEsifw-27" target="tiiuQXXSepF0HXVEsifw-29" edge="1"><mxGeometry relative="1" as="geometry"/></mxCell><mxCell id="tiiuQXXSepF0HXVEsifw-34" value="" style="edgeStyle=orthogonalEdgeStyle;curved=0;rounded=1;orthogonalLoop=1;jettySize=auto;html=1;fontColor=#FEFAE0;strokeColor=#DDA15E;fillColor=#BC6C25;" parent="1" source="tiiuQXXSepF0HXVEsifw-27" target="tiiuQXXSepF0HXVEsifw-33" edge="1"><mxGeometry relative="1" as="geometry"/></mxCell><mxCell id="tiiuQXXSepF0HXVEsifw-27" value="Kill or not kill" style="rhombus;whiteSpace=wrap;html=1;rounded=0;fontColor=#FEFAE0;strokeColor=#DDA15E;fillColor=#BC6C25;" parent="1" vertex="1"><mxGeometry x="1245" y="270" width="80" height="80" as="geometry"/></mxCell><mxCell id="tiiuQXXSepF0HXVEsifw-29" value="The alarms have turned on!!" style="whiteSpace=wrap;html=1;rounded=0;fontColor=#FEFAE0;strokeColor=#DDA15E;fillColor=#BC6C25;" parent="1" vertex="1"><mxGeometry x="1225" y="510" width="120" height="60" as="geometry"/></mxCell><mxCell id="tiiuQXXSepF0HXVEsifw-31" value="If kill" style="text;html=1;strokeColor=none;fillColor=none;align=center;verticalAlign=middle;whiteSpace=wrap;rounded=0;fontColor=#FEFAE0;" parent="1" vertex="1"><mxGeometry x="1285" y="440" width="40" height="20" as="geometry"/></mxCell><mxCell id="tiiuQXXSepF0HXVEsifw-33" value="You sneak behind him and knock him out" style="whiteSpace=wrap;html=1;rounded=0;fontColor=#FEFAE0;strokeColor=#DDA15E;fillColor=#BC6C25;" parent="1" vertex="1"><mxGeometry x="1075" y="510" width="120" height="60" as="geometry"/></mxCell><mxCell id="tiiuQXXSepF0HXVEsifw-35" value="If not Kill" style="text;html=1;strokeColor=none;fillColor=none;align=center;verticalAlign=middle;whiteSpace=wrap;rounded=0;fontColor=#FEFAE0;" parent="1" vertex="1"><mxGeometry x="1135" y="440" width="70" height="20" as="geometry"/></mxCell><mxCell id="tiiuQXXSepF0HXVEsifw-39" value="" style="edgeStyle=orthogonalEdgeStyle;curved=0;rounded=1;orthogonalLoop=1;jettySize=auto;html=1;fontColor=#FEFAE0;strokeColor=#DDA15E;fillColor=#BC6C25;" parent="1" source="tiiuQXXSepF0HXVEsifw-36" target="tiiuQXXSepF0HXVEsifw-38" edge="1"><mxGeometry relative="1" as="geometry"/></mxCell><mxCell id="tiiuQXXSepF0HXVEsifw-41" value="" style="edgeStyle=orthogonalEdgeStyle;curved=0;rounded=1;orthogonalLoop=1;jettySize=auto;html=1;fontColor=#FEFAE0;strokeColor=#DDA15E;fillColor=#BC6C25;" parent="1" source="tiiuQXXSepF0HXVEsifw-36" target="tiiuQXXSepF0HXVEsifw-40" edge="1"><mxGeometry relative="1" as="geometry"/></mxCell><mxCell id="tiiuQXXSepF0HXVEsifw-36" value="left or right&lt;br&gt;" style="rhombus;whiteSpace=wrap;html=1;rounded=0;fontColor=#FEFAE0;strokeColor=#DDA15E;fillColor=#BC6C25;" parent="1" vertex="1"><mxGeometry x="445" y="270" width="80" height="80" as="geometry"/></mxCell><mxCell id="tiiuQXXSepF0HXVEsifw-38" value="They find a gun" style="whiteSpace=wrap;html=1;rounded=0;fontColor=#FEFAE0;strokeColor=#DDA15E;fillColor=#BC6C25;" parent="1" vertex="1"><mxGeometry x="575" y="510" width="120" height="60" as="geometry"/></mxCell><mxCell id="tiiuQXXSepF0HXVEsifw-40" value="They find a guard" style="whiteSpace=wrap;html=1;rounded=0;fontColor=#FEFAE0;strokeColor=#DDA15E;fillColor=#BC6C25;" parent="1" vertex="1"><mxGeometry x="425" y="510" width="120" height="60" as="geometry"/></mxCell></root></mxGraphModel></diagram></mxfile>